<svg id="visual" viewBox="0 0 900 600" width="900" height="600" xmlns="http://www.w3.org/2000/svg" xmlns:xlink="http://www.w3.org/1999/xlink" version="1.1"><rect width="900" height="600" fill="#daf0f4"></rect><g><g transform="translate(320 14)"><path d="M0 -29.3L25.4 -14.6L25.4 14.6L0 29.3L-25.4 14.6L-25.4 -14.6Z" fill="#c9c5eb"></path></g><g transform="translate(344 96)"><path d="M0 -14L12.1 -7L12.1 7L0 14L-12.1 7L-12.1 -7Z" fill="#c9c5eb"></path></g><g transform="translate(15 354)"><path d="M0 -19L16.5 -9.5L16.5 9.5L0 19L-16.5 9.5L-16.5 -9.5Z" fill="#c9c5eb"></path></g><g transform="translate(215 374)"><path d="M0 -25L21.7 -12.5L21.7 12.5L0 25L-21.7 12.5L-21.7 -12.5Z" fill="#c9c5eb"></path></g><g transform="translate(729 502)"><path d="M0 -17L14.7 -8.5L14.7 8.5L0 17L-14.7 8.5L-14.7 -8.5Z" fill="#c9c5eb"></path></g><g transform="translate(43 203)"><path d="M0 -26L22.5 -13L22.5 13L0 26L-22.5 13L-22.5 -13Z" fill="#c9c5eb"></path></g><g transform="translate(682 554)"><path d="M0 -18L15.6 -9L15.6 9L0 18L-15.6 9L-15.6 -9Z" fill="#c9c5eb"></path></g><g transform="translate(400 303)"><path d="M0 -7L6.1 -3.5L6.1 3.5L0 7L-6.1 3.5L-6.1 -3.5Z" fill="#c9c5eb"></path></g><g transform="translate(613 167)"><path d="M0 -20L17.3 -10L17.3 10L0 20L-17.3 10L-17.3 -10Z" fill="#c9c5eb"></path></g><g transform="translate(764 93)"><path d="M0 -21L18.2 -10.5L18.2 10.5L0 21L-18.2 10.5L-18.2 -10.5Z" fill="#c9c5eb"></path></g><g transform="translate(372 484)"><path d="M0 -28L24.2 -14L24.2 14L0 28L-24.2 14L-24.2 -14Z" fill="#c9c5eb"></path></g><g transform="translate(205 82)"><path d="M0 -11L9.5 -5.5L9.5 5.5L0 11L-9.5 5.5L-9.5 -5.5Z" fill="#c9c5eb"></path></g><g transform="translate(84 540)"><path d="M0 -12L10.4 -6L10.4 6L0 12L-10.4 6L-10.4 -6Z" fill="#c9c5eb"></path></g><g transform="translate(217 546)"><path d="M0 -13L11.3 -6.5L11.3 6.5L0 13L-11.3 6.5L-11.3 -6.5Z" fill="#c9c5eb"></path></g><g transform="translate(443 373)"><path d="M0 -18L15.6 -9L15.6 9L0 18L-15.6 9L-15.6 -9Z" fill="#c9c5eb"></path></g><g transform="translate(33 576)"><path d="M0 -15L13 -7.5L13 7.5L0 15L-13 7.5L-13 -7.5Z" fill="#c9c5eb"></path></g><g transform="translate(682 444)"><path d="M0 -20L17.3 -10L17.3 10L0 20L-17.3 10L-17.3 -10Z" fill="#c9c5eb"></path></g><g transform="translate(565 464)"><path d="M0 -19L16.5 -9.5L16.5 9.5L0 19L-16.5 9.5L-16.5 -9.5Z" fill="#c9c5eb"></path></g></g></svg>